<svg width="220" height="220" viewBox="0 0 220 220" fill="none" xmlns="http://www.w3.org/2000/svg">
<path d="M43.8855 176.114C37.4419 182.558 26.8757 182.619 21.4674 175.284C8.12684 157.193 0.566315 135.327 0.0305328 112.592C-0.635662 84.3227 9.60998 56.883 28.6406 35.9686C47.6712 15.0543 74.0249 2.2718 102.231 0.274693C130.437 -1.72241 158.329 7.21927 180.117 25.2435C201.904 43.2678 215.914 68.9901 219.238 97.0709C222.561 125.152 214.943 153.434 197.965 176.046C180.987 198.659 155.954 213.865 128.061 218.507C105.628 222.241 82.7316 218.912 62.4613 209.198C54.2436 205.259 52.3231 194.869 57.4452 187.332C62.5673 179.795 72.7985 178.031 81.2524 181.433C94.2755 186.673 108.589 188.294 122.642 185.955C142.168 182.705 159.691 172.061 171.576 156.232C183.46 140.404 188.793 120.606 186.466 100.95C184.14 81.2931 174.333 63.2875 159.082 50.6705C143.83 38.0535 124.306 31.7943 104.562 33.1923C84.8174 34.5903 66.3698 43.538 53.0484 58.178C39.727 72.8181 32.555 92.0259 33.0214 111.814C33.357 126.057 37.6313 139.813 45.2195 151.624C50.1453 159.29 50.3292 169.671 43.8855 176.114Z" fill="url(#paint0_linear_2_6479)"/>
<defs>
<linearGradient id="paint0_linear_2_6479" x1="0" y1="110" x2="220" y2="110" gradientUnits="userSpaceOnUse">
<stop stop-color="#FA709A"/>
<stop offset="1" stop-color="#FEE140"/>
</linearGradient>
</defs>
</svg>
