<svg width="20" height="20" viewBox="0 0 20 20" fill="none" xmlns="http://www.w3.org/2000/svg">
<path d="M17.9417 13.2748C17.8083 13.0498 17.4333 12.6998 16.5 12.8665C15.9833 12.9581 15.4583 12.9998 14.9333 12.9748C12.9917 12.8915 11.2333 11.9998 10.0083 10.6248C8.925 9.41648 8.25833 7.84148 8.25 6.14148C8.25 5.19148 8.43333 4.27481 8.80833 3.40815C9.175 2.56648 8.91667 2.12481 8.73333 1.94148C8.54167 1.74981 8.09167 1.48315 7.20833 1.84981C3.8 3.28315 1.69167 6.69981 1.94167 10.3581C2.19167 13.7998 4.60833 16.7415 7.80833 17.8498C8.575 18.1165 9.38333 18.2748 10.2167 18.3081C10.35 18.3165 10.4833 18.3248 10.6167 18.3248C13.4083 18.3248 16.025 17.0081 17.675 14.7665C18.2333 13.9915 18.0833 13.4998 17.9417 13.2748Z" fill="#051724"/>
</svg>
