<svg width="41" height="41" viewBox="0 0 41 41" fill="none" xmlns="http://www.w3.org/2000/svg">
<path d="M39.3685 8.94863C38.0017 9.55583 36.5333 9.96423 34.9921 10.1486C36.5661 9.20583 37.7729 7.71343 38.3413 5.93383C36.8701 6.80663 35.2393 7.44063 33.5021 7.78343C32.1125 6.30223 30.1329 5.37663 27.9417 5.37663C23.0985 5.31183 19.3749 10.0434 20.5209 14.7306C14.1893 14.4134 8.57606 11.3798 4.81686 6.76903C2.76526 10.1146 3.93006 14.899 7.17526 16.9414C5.92686 16.9014 4.75126 16.5586 3.72446 15.9886C3.67686 19.7106 6.31726 22.853 9.83606 23.5542C8.75486 23.8558 7.50926 23.903 6.39526 23.6854C7.36526 26.7118 10.1789 28.9158 13.5125 28.977C10.4985 31.3854 6.27886 32.641 2.23206 32.1322C18.5049 42.147 36.4941 29.0262 35.5653 12.8918C37.0545 11.8166 38.3473 10.4754 39.3685 8.94863Z" fill="white"/>
</svg>
