<svg width="41" height="41" viewBox="0 0 41 41" fill="none" xmlns="http://www.w3.org/2000/svg">
<path d="M36.3916 1.50535C30.5471 1.48895 8.99075 1.51655 4.00835 1.50535C2.45795 1.50535 1.19995 2.72495 1.19995 4.22695V36.7794C1.19995 38.2817 2.45795 39.5001 4.00835 39.5001H36.3916C37.9427 39.5001 39.2 38.2817 39.2 36.7789V4.22695C39.2 2.72495 37.9427 1.50535 36.3916 1.50535Z" fill="white"/>
<path d="M21.5811 33.302C21.5811 33.302 21.5811 23.7508 21.5811 23.7504C21.5255 21.9952 22.5747 20.3572 24.6859 20.2836C26.7431 20.2836 27.5663 21.852 27.5663 24.1516V33.3016H33.2519V23.494C33.2519 18.24 30.4471 15.7952 26.7059 15.7952C23.6387 15.7952 22.2915 17.5092 21.5431 18.6768L21.5811 16.1968H15.8955C15.9695 17.8016 15.8951 33.302 15.8951 33.302H21.5811ZM12.7479 25.8844V16.1964H7.06153V33.3016H12.7483C12.7471 31.5056 12.7503 27.6552 12.7479 25.8844ZM9.90593 13.8616C11.8883 13.8616 13.1227 12.548 13.1227 10.9068C13.1063 6.94797 6.72113 6.99197 6.72633 10.9064C6.72193 12.5604 7.99033 13.882 9.90593 13.8616Z" fill="black"/>
</svg>
