<svg width="40" height="41" viewBox="0 0 40 41" fill="none" xmlns="http://www.w3.org/2000/svg">
<path d="M30.1408 8.08008C27.1008 8.17328 27.1016 12.5469 30.1408 12.6393C33.1808 12.5461 33.18 8.17248 30.1408 8.08008ZM20 10.7193C14.612 10.7193 10.2444 15.0985 10.2444 20.5005C10.7584 33.4753 29.2432 33.4717 29.7552 20.5005C29.7556 15.0985 25.3876 10.7193 20 10.7193ZM20 26.8497C16.5028 26.8497 13.6676 24.0069 13.6676 20.5005C14.0012 12.0785 26.0004 12.0805 26.3328 20.5005C26.3324 24.0073 23.4972 26.8497 20 26.8497Z" fill="white"/>
<path d="M38.8832 12.6673C38.7424 6.00045 34.5008 1.75645 27.8324 1.61685C26.2312 1.46245 13.7696 1.45965 12.1672 1.61685C5.50036 1.75765 1.25636 5.99925 1.11676 12.6677C0.962359 14.2665 0.959159 26.7321 1.11676 28.3329C1.24116 34.9781 5.52116 39.2593 12.1672 39.3833C13.7684 39.5393 26.23 39.5393 27.8324 39.3833C29.8544 39.2909 31.2356 38.9697 32.444 38.5001C36.6788 36.8085 38.748 33.0457 38.8832 28.3325C39.0376 26.7313 39.0404 14.2697 38.8832 12.6673ZM27.6764 35.9637C26.1008 36.1141 13.9 36.1165 12.3232 35.9637C10.4712 35.8793 9.46516 35.5697 8.79556 35.3097C3.01596 32.6289 4.80796 27.2077 4.53556 19.7665C4.54156 18.0381 4.53196 14.5521 4.53596 12.8237C4.76676 7.67085 7.19356 5.28525 12.3232 5.03645C13.9008 4.88605 26.0984 4.88365 27.6764 5.03645C32.8308 5.26725 35.214 7.69405 35.4636 12.8233C35.5656 14.0549 35.6396 20.7781 35.4636 24.1805C35.6536 30.5709 35.3624 35.5889 27.6764 35.9637Z" fill="white"/>
</svg>
