<svg width="41" height="41" viewBox="0 0 41 41" fill="none" xmlns="http://www.w3.org/2000/svg">
<g clip-path="url(#clip0_304_4368)">
<path d="M13.9331 40.5003C17.6131 40.5003 20.5998 37.5137 20.5998 33.8337V27.167H13.9331C10.2531 27.167 7.26648 30.1537 7.26648 33.8337C7.26648 37.5137 10.2531 40.5003 13.9331 40.5003Z" fill="white"/>
<path d="M7.26648 20.4997C7.26648 16.8197 10.2531 13.833 13.9331 13.833H20.5998V27.1663H13.9331C10.2531 27.1663 7.26648 24.1797 7.26648 20.4997Z" fill="white"/>
<path d="M7.26648 7.16667C7.26648 3.48667 10.2531 0.5 13.9331 0.5H20.5998V13.8333H13.9331C10.2531 13.8333 7.26648 10.8467 7.26648 7.16667Z" fill="white"/>
<path d="M20.5999 0.5H27.2665C30.9465 0.5 33.9332 3.48667 33.9332 7.16667C33.9332 10.8467 30.9465 13.8333 27.2665 13.8333H20.5999V0.5Z" fill="white"/>
<path d="M33.9332 20.4997C33.9332 24.1797 30.9465 27.1663 27.2665 27.1663C23.5865 27.1663 20.5999 24.1797 20.5999 20.4997C20.5999 16.8197 23.5865 13.833 27.2665 13.833C30.9465 13.833 33.9332 16.8197 33.9332 20.4997Z" fill="white"/>
</g>
<defs>
<clipPath id="clip0_304_4368">
<rect width="40" height="40" fill="white" transform="translate(0.599976 0.5)"/>
</clipPath>
</defs>
</svg>
