<svg width="41" height="41" viewBox="0 0 41 41" fill="none" xmlns="http://www.w3.org/2000/svg">
<path d="M20.3906 3.83301C17.0942 3.83301 13.8719 4.81049 11.131 6.64185C8.39023 8.4732 6.25402 11.0762 4.99256 14.1216C3.7311 17.1671 3.40104 20.5182 4.04413 23.7512C4.68722 26.9842 6.27456 29.9539 8.60544 32.2848C10.9363 34.6157 13.906 36.203 17.139 36.8461C20.3721 37.4892 23.7232 37.1591 26.7686 35.8977C29.814 34.6362 32.417 32.5 34.2484 29.7592C36.0797 27.0184 37.0572 23.796 37.0572 20.4997C37.0574 18.3109 36.6264 16.1436 35.7889 14.1214C34.9514 12.0992 33.7237 10.2618 32.1761 8.71416C30.6284 7.16648 28.791 5.93883 26.7688 5.10131C24.7466 4.2638 22.5793 3.83283 20.3906 3.83301ZM25.6897 29.0871C25.6273 29.2427 25.5324 29.3831 25.4113 29.499C25.2903 29.6148 25.1458 29.7035 24.9877 29.759C24.8295 29.8144 24.6613 29.8355 24.4944 29.8206C24.3275 29.8058 24.1656 29.7554 24.0197 29.673L19.4953 26.1573L16.5914 28.8363C16.524 28.8861 16.4452 28.9182 16.3622 28.9295C16.2792 28.9408 16.1947 28.9311 16.1164 28.9012L16.6731 23.9205L16.6909 23.9346L16.7023 23.8363C16.7023 23.8363 24.844 16.4238 25.1756 16.1079C25.5114 15.7929 25.4006 15.7246 25.4006 15.7246C25.4197 15.3404 24.7981 15.7246 24.7981 15.7246L14.0106 22.6647L9.51807 21.1347C9.51807 21.1347 8.82807 20.8872 8.76307 20.343C8.69473 19.803 9.54055 19.5097 9.54055 19.5097L27.4022 12.4138C27.4022 12.4138 28.8706 11.7596 28.8706 12.843L25.6897 29.0871Z" fill="white"/>
</svg>
