<svg width="40" height="41" viewBox="0 0 40 41" fill="none" xmlns="http://www.w3.org/2000/svg">
<g clip-path="url(#clip0_304_4385)">
<path d="M21.25 20.5C21.25 26.3586 16.7641 31.125 11.25 31.125C5.73594 31.125 1.25 26.3586 1.25 20.5C1.25 14.6414 5.73594 9.875 11.25 9.875C16.7641 9.875 21.25 14.6414 21.25 20.5ZM28.75 10.5C27.8621 10.5 26.1876 10.9314 24.9494 13.8205C24.1759 15.6251 23.75 17.9974 23.75 20.5C23.75 23.0026 24.1759 25.3749 24.9494 27.1795C26.1876 30.0686 27.8621 30.5 28.75 30.5C29.6379 30.5 31.3124 30.0686 32.5506 27.1795C33.3241 25.3749 33.75 23.0026 33.75 20.5C33.75 17.9974 33.3241 15.6251 32.5506 13.8205C31.3124 10.9314 29.6379 10.5 28.75 10.5ZM37.5 10.5C37.1685 10.5 36.8506 10.6317 36.6161 10.8661C36.3817 11.1006 36.25 11.4185 36.25 11.75V29.25C36.25 29.5815 36.3817 29.8995 36.6161 30.1339C36.8505 30.3683 37.1685 30.5 37.5 30.5C37.8315 30.5 38.1495 30.3683 38.3839 30.1339C38.6183 29.8995 38.75 29.5815 38.75 29.25V11.75C38.75 11.4185 38.6183 11.1006 38.3839 10.8661C38.1494 10.6317 37.8315 10.5 37.5 10.5Z" fill="white"/>
</g>
<defs>
<clipPath id="clip0_304_4385">
<rect width="40" height="40" fill="white" transform="translate(0 0.5)"/>
</clipPath>
</defs>
</svg>
