<svg width="20" height="20" viewBox="0 0 20 20" fill="none" xmlns="http://www.w3.org/2000/svg">
<path d="M9.99996 15.8337C13.2216 15.8337 15.8333 13.222 15.8333 10.0003C15.8333 6.77866 13.2216 4.16699 9.99996 4.16699C6.7783 4.16699 4.16663 6.77866 4.16663 10.0003C4.16663 13.222 6.7783 15.8337 9.99996 15.8337Z" fill="#FFF194"/>
<path d="M10 19.133C9.54171 19.133 9.16671 18.7913 9.16671 18.333V18.2663C9.16671 17.808 9.54171 17.433 10 17.433C10.4584 17.433 10.8334 17.808 10.8334 18.2663C10.8334 18.7247 10.4584 19.133 10 19.133ZM15.95 16.783C15.7334 16.783 15.525 16.6997 15.3584 16.5413L15.25 16.433C14.925 16.108 14.925 15.583 15.25 15.258C15.575 14.933 16.1 14.933 16.425 15.258L16.5334 15.3663C16.8584 15.6913 16.8584 16.2163 16.5334 16.5413C16.375 16.6997 16.1667 16.783 15.95 16.783ZM4.05004 16.783C3.83337 16.783 3.62504 16.6997 3.45837 16.5413C3.13337 16.2163 3.13337 15.6913 3.45837 15.3663L3.56671 15.258C3.89171 14.933 4.41671 14.933 4.74171 15.258C5.06671 15.583 5.06671 16.108 4.74171 16.433L4.63337 16.5413C4.47504 16.6997 4.25837 16.783 4.05004 16.783ZM18.3334 10.833H18.2667C17.8084 10.833 17.4334 10.458 17.4334 9.99967C17.4334 9.54134 17.8084 9.16634 18.2667 9.16634C18.725 9.16634 19.1334 9.54134 19.1334 9.99967C19.1334 10.458 18.7917 10.833 18.3334 10.833ZM1.73337 10.833H1.66671C1.20837 10.833 0.833374 10.458 0.833374 9.99967C0.833374 9.54134 1.20837 9.16634 1.66671 9.16634C2.12504 9.16634 2.53337 9.54134 2.53337 9.99967C2.53337 10.458 2.19171 10.833 1.73337 10.833ZM15.8417 4.99134C15.625 4.99134 15.4167 4.90801 15.25 4.74967C14.925 4.42467 14.925 3.89967 15.25 3.57467L15.3584 3.46634C15.6834 3.14134 16.2084 3.14134 16.5334 3.46634C16.8584 3.79134 16.8584 4.31634 16.5334 4.64134L16.425 4.74967C16.2667 4.90801 16.0584 4.99134 15.8417 4.99134ZM4.15837 4.99134C3.94171 4.99134 3.73337 4.90801 3.56671 4.74967L3.45837 4.63301C3.13337 4.30801 3.13337 3.78301 3.45837 3.45801C3.78337 3.13301 4.30837 3.13301 4.63337 3.45801L4.74171 3.56634C5.06671 3.89134 5.06671 4.41634 4.74171 4.74134C4.58337 4.90801 4.36671 4.99134 4.15837 4.99134ZM10 2.53301C9.54171 2.53301 9.16671 2.19134 9.16671 1.73301V1.66634C9.16671 1.20801 9.54171 0.833008 10 0.833008C10.4584 0.833008 10.8334 1.20801 10.8334 1.66634C10.8334 2.12467 10.4584 2.53301 10 2.53301Z" fill="#FFF194"/>
</svg>
